<svg width="11" height="11" viewBox="0 0 11 11" fill="none" xmlns="http://www.w3.org/2000/svg">
<path d="M9.77074 7.18935C10.224 7.1457 10.71 7.78955 10.4206 8.19878C10.2458 8.44432 10.0602 8.67348 9.83081 8.89174C7.69563 11.0361 4.23892 11.0361 2.1092 8.89174C-0.0259834 6.76376 -0.0259834 3.30443 2.1092 1.17645C2.32763 0.958193 2.55699 0.761764 2.80273 0.58716C3.21229 0.297973 3.85667 0.783589 3.81298 1.23647C3.66554 2.79699 4.18978 4.41752 5.39116 5.61247C6.58708 6.81287 8.20348 7.33668 9.77074 7.18935ZM8.87517 8.29154C7.32975 8.20424 5.80072 7.56584 4.61572 6.39818C3.43072 5.20324 2.79726 3.67 2.70989 2.13131C1.1754 3.84461 1.23547 6.47457 2.87918 8.12239C4.52835 9.76476 7.16047 9.82478 8.87517 8.29154Z" fill="black"/>
</svg>
