<svg width="11" height="11" viewBox="0 0 11 11" fill="none" xmlns="http://www.w3.org/2000/svg">
<path d="M2.94823 1.57542C2.85948 1.4225 2.91198 1.22625 3.0649 1.1375C3.21781 1.04875 3.41406 1.10083 3.50281 1.25417L3.91448 1.96667C4.00323 2.11958 3.95073 2.31583 3.79781 2.40458C3.6449 2.49333 3.44865 2.44125 3.3599 2.28792L2.94823 1.57542ZM5.50781 2.63208C6.2999 2.63208 7.01656 2.95292 7.53573 3.47208C8.05448 3.99125 8.37573 4.70833 8.37573 5.5C8.37573 6.29208 8.0549 7.00875 7.53573 7.52792C7.01656 8.04708 6.2999 8.36792 5.50781 8.36792C4.71573 8.36792 3.99906 8.04708 3.4799 7.52792C2.96115 7.00875 2.6399 6.29208 2.6399 5.5C2.6399 4.70792 2.96073 3.99125 3.4799 3.47208C3.99906 2.95333 4.71615 2.63208 5.50781 2.63208ZM7.1024 3.90542C6.69448 3.4975 6.13073 3.245 5.50781 3.245C4.8849 3.245 4.32115 3.4975 3.91323 3.90542C3.50531 4.31333 3.25281 4.87708 3.25281 5.5C3.25281 6.12292 3.50531 6.68667 3.91323 7.09458C4.32115 7.5025 4.8849 7.755 5.50781 7.755C6.13073 7.755 6.69448 7.5025 7.1024 7.09458C7.51031 6.68667 7.76281 6.12292 7.76281 5.5C7.76281 4.87708 7.51031 4.31333 7.1024 3.90542ZM5.25281 0.82125C5.25281 0.64375 5.39656 0.5 5.57406 0.5C5.75156 0.5 5.89531 0.64375 5.89531 0.82125V1.64417C5.89531 1.82167 5.75156 1.96542 5.57406 1.96542C5.39656 1.96542 5.25281 1.82167 5.25281 1.64417V0.82125ZM7.6274 1.32167C7.71531 1.16875 7.91073 1.11583 8.06406 1.20375C8.21698 1.29167 8.2699 1.48708 8.18198 1.64042L7.77031 2.35292C7.6824 2.50583 7.48698 2.55875 7.33365 2.47083C7.18073 2.38292 7.12781 2.1875 7.21573 2.03417L7.6274 1.32167ZM9.4324 2.94042C9.58531 2.85167 9.78156 2.90417 9.87031 3.05708C9.95906 3.21 9.90698 3.40625 9.75365 3.495L9.04115 3.90667C8.88823 3.99542 8.69198 3.94292 8.60323 3.79C8.51448 3.63708 8.56656 3.44083 8.7199 3.35208L9.4324 2.94042ZM10.1866 5.245C10.3641 5.245 10.5078 5.38875 10.5078 5.56625C10.5078 5.74375 10.3641 5.8875 10.1866 5.8875H9.36365C9.18615 5.8875 9.0424 5.74375 9.0424 5.56625C9.0424 5.38875 9.18615 5.245 9.36365 5.245H10.1866ZM9.68615 7.61958C9.83906 7.7075 9.89198 7.90292 9.80406 8.05625C9.71615 8.20917 9.52073 8.26208 9.3674 8.17417L8.6549 7.7625C8.50198 7.67458 8.44906 7.47917 8.53698 7.32583C8.6249 7.17292 8.82031 7.12 8.97365 7.20792L9.68615 7.61958ZM8.0674 9.42458C8.15615 9.5775 8.10365 9.77375 7.95073 9.8625C7.79781 9.95125 7.60156 9.89917 7.51281 9.74583L7.10115 9.03333C7.0124 8.88042 7.0649 8.68417 7.21781 8.59542C7.37073 8.50667 7.56698 8.55875 7.65573 8.71208L8.0674 9.42458ZM5.76281 10.1788C5.76281 10.3562 5.61906 10.5 5.44156 10.5C5.26406 10.5 5.12031 10.3562 5.12031 10.1788V9.35583C5.12031 9.17833 5.26406 9.03458 5.44156 9.03458C5.61906 9.03458 5.76281 9.17833 5.76281 9.35583V10.1788ZM3.38823 9.67833C3.30031 9.83125 3.1049 9.88417 2.95156 9.79625C2.79865 9.70833 2.74573 9.51292 2.83365 9.35958L3.24531 8.64708C3.33323 8.49417 3.52865 8.44125 3.68198 8.52917C3.8349 8.61708 3.88781 8.8125 3.7999 8.96583L3.38823 9.67833ZM1.58323 8.05958C1.43031 8.14833 1.23406 8.09583 1.14531 7.94292C1.05656 7.79 1.10865 7.59375 1.26198 7.505L1.97448 7.09333C2.1274 7.00458 2.32365 7.05708 2.4124 7.21C2.50115 7.36292 2.44906 7.55917 2.29573 7.64792L1.58323 8.05958ZM0.829063 5.755C0.651562 5.755 0.507812 5.61125 0.507812 5.43375C0.507812 5.25625 0.651562 5.1125 0.829063 5.1125H1.65198C1.82948 5.1125 1.97323 5.25625 1.97323 5.43375C1.97323 5.61125 1.82948 5.755 1.65198 5.755H0.829063ZM1.32948 3.38042C1.17656 3.2925 1.12365 3.09708 1.21156 2.94375C1.29948 2.79083 1.4949 2.73792 1.64823 2.82583L2.36073 3.2375C2.51365 3.32542 2.56656 3.52083 2.47865 3.67417C2.39073 3.82708 2.19531 3.88 2.04198 3.79208L1.32948 3.38042Z" fill="#84809C"/>
</svg>
