<svg width="25" height="24" viewBox="0 0 25 24" fill="none" xmlns="http://www.w3.org/2000/svg">
<mask id="mask0_359_758" style="mask-type:alpha" maskUnits="userSpaceOnUse" x="0" y="0" width="25" height="24">
<rect x="0.507812" width="24" height="24" fill="#797A7B"/>
</mask>
<g mask="url(#mask0_359_758)">
<path fill-rule="evenodd" clip-rule="evenodd" d="M11.5849 9.23047C12.0947 9.23047 12.508 9.64374 12.508 10.1535L12.508 13.4635L13.7014 12.2701C14.0619 11.9096 14.6463 11.9096 15.0068 12.2701C15.3673 12.6305 15.3673 13.215 15.0068 13.5755L12.2376 16.3447C11.8771 16.7052 11.2927 16.7052 10.9322 16.3447L8.16294 13.5755C7.80246 13.215 7.80246 12.6305 8.16294 12.2701C8.52342 11.9096 9.10789 11.9096 9.46837 12.2701L10.6618 13.4635V10.1535C10.6618 9.64374 11.0751 9.23047 11.5849 9.23047Z" fill="#677083"/>
<path fill-rule="evenodd" clip-rule="evenodd" d="M7.8925 3.69186C6.8729 3.69186 6.04635 4.51841 6.04635 5.53801V16.6149C6.04635 17.6345 6.8729 18.4611 7.8925 18.4611H15.2771C16.2967 18.4611 17.1233 17.6345 17.1233 16.6149V8.14887C17.1233 7.90405 17.026 7.66926 16.8529 7.49615L13.319 3.96222C13.1459 3.78911 12.9111 3.69186 12.6663 3.69186H7.8925ZM4.2002 5.53801C4.2002 3.49881 5.8533 1.8457 7.8925 1.8457H12.6663C13.4007 1.8457 14.1051 2.13746 14.6244 2.65679L18.1583 6.19073C18.6777 6.71006 18.9694 7.41442 18.9694 8.14887V16.6149C18.9694 18.6541 17.3163 20.3072 15.2771 20.3072H7.8925C5.8533 20.3072 4.2002 18.6541 4.2002 16.6149V5.53801Z" fill="#677083"/>
<path fill-rule="evenodd" clip-rule="evenodd" d="M13.4311 2.76953V4.61568C13.4311 6.14509 14.6709 7.38492 16.2003 7.38492H18.0465V9.23107H16.2003C13.6513 9.23107 11.585 7.16469 11.585 4.61568V2.76953H13.4311Z" fill="#677083"/>
</g>
</svg>
